<?xml version="1.0" encoding="utf-8"?>
<!-- Generator: Adobe Illustrator 16.0.0, SVG Export Plug-In . SVG Version: 6.00 Build 0)  -->
<!DOCTYPE svg PUBLIC "-//W3C//DTD SVG 1.1//EN" "http://www.w3.org/Graphics/SVG/1.1/DTD/svg11.dtd">
<svg version="1.1" id="Ebene_1" xmlns="http://www.w3.org/2000/svg" xmlns:xlink="http://www.w3.org/1999/xlink" x="0px" y="0px"
	 width="566.93px" height="566.93px" viewBox="0 0 566.93 566.93" enable-background="new 0 0 566.93 566.93" xml:space="preserve">
<g>
	<path fill="#FFFFFF" d="M180.289,260.49c0-16.784,0-33.568,0-50.376c14.847,0,29.702,0,44.594,0c0,16.776,0,33.576,0,50.376
		C210.038,260.49,195.167,260.49,180.289,260.49z M191.744,248.587c0.125,0.004,0.25,0.007,0.375,0.011
		c0.216-0.202,0.401-0.462,0.653-0.597c1.079-0.576,2.01-1.247,2.444-2.491c0.085-0.243,0.76-0.447,1.125-0.396
		c1.644,0.227,3.264,0.668,4.911,0.797c0.903,0.07,1.407,0.323,1.718,1.135c0.182,0.476,0.463,0.913,0.863,1.682
		c0.113-0.526,0.139-0.664,0.173-0.799c0.449-1.787,2.36-3.391,4.123-2.976c1.036,0.244,1.96,1.275,2.737,2.132
		c0.261,0.287-0.003,1.157-0.18,1.712c-0.359,1.128,0.187,1.954,1.703,2.407c1.015,0.303,2.02-0.254,2.235-1.239
		c0.253-1.159-0.227-1.844-1.443-2.283c-0.634-0.229-1.417-0.495-1.753-0.998c-0.512-0.769-0.758-1.741-1.002-2.657
		c-0.314-1.185,0.266-1.956,1.786-2.584c1.131-0.468,1.083,0.588,1.414,1.112c0.749,1.186,1.927,1.665,2.768,1.081
		c0.879-0.611,0.865-1.743,0.091-2.905c-0.284-0.427-0.353-1.017-0.447-1.545c-0.082-0.463,0.09-1.026-0.113-1.402
		c-0.584-1.077-0.123-1.985,0.297-2.908c0.212-0.466,0.642-0.849,0.786-1.327c0.18-0.595,0.447-1.49,0.167-1.815
		c-0.36-0.417-1.25-0.587-1.871-0.515c-0.757,0.089-1.229-0.148-1.404-0.754c-0.112-0.391-0.001-1.006,0.258-1.31
		c0.535-0.628,1.2-1.166,1.881-1.64c0.401-0.278,0.928-0.396,1.414-0.525c0.637-0.168,1.372-0.13,1.917-0.44
		c0.895-0.51,0.556-1.425,0.232-2.1c-0.316-0.659-1.057-1.254-1.752-0.725c-0.686,0.522-1.111,1.395-1.625,2.131
		c-0.14,0.2-0.118,0.561-0.288,0.682c-0.778,0.55-1.567,1.102-2.418,1.522c-0.294,0.145-0.908,0.052-1.151-0.174
		c-2.025-1.886-4.007-3.818-5.972-5.766c-0.245-0.243-0.525-0.737-0.435-0.985c0.514-1.411,0.719-3.033,2.615-3.51
		c0.897-0.226,1.467-1.116,1.271-2.044c-0.091-0.431-0.816-0.826-1.334-1.041c-0.617-0.256-1.709,0.784-1.693,1.715
		c0.036,2.08-1.39,3.131-2.831,4.093c-1.378,0.921-2.429,0.349-2.677-1.289c-0.117-0.769-0.451-1.579-1.256-1.404
		c-0.514,0.111-1.136,0.909-1.245,1.486c-0.335,1.775-0.495,1.909-2.003,0.917c-0.814-0.535-1.894-0.141-1.803,0.769
		c0.13,1.303-0.663,1.977-1.415,2.72c-0.678,0.671-1.358,1.061-2.159,0.035c-0.565-0.725-1.469-0.989-2.203-0.329
		c-0.75,0.674-0.737,1.626,0.008,2.333c1.012,0.959,0.748,1.938,0.353,3.042c-0.37,1.034-0.701,2.107-0.842,3.19
		c-0.199,1.529-0.372,1.699-1.941,1.337c-0.922-0.212-1.711,0.12-2.098,0.976c-0.371,0.822,0.232,1.498,0.857,1.739
		c0.605,0.234,1.383,0,2.083,0.02c0.481,0.014,1.248-0.053,1.389,0.197c0.586,1.038,0.982,2.182,1.529,3.479
		c-0.943,0.096-1.571,0.126-2.186,0.231c-1.008,0.171-1.622,0.885-1.497,1.814c0.065,0.488,0.773,1.113,1.305,1.256
		c0.6,0.163,1.345-0.084,1.994-0.269c0.498-0.142,1.182-0.335,1.107,0.304C191.058,244.869,193.22,246.499,191.744,248.587z
		 M191.425,251.638c-1.292-0.059-2.416,0.912-2.432,2.101c-0.006,0.438,1.863,1.41,2.74,1.425c0.739,0.013,1.688-1.027,1.705-1.87
		C193.453,252.539,192.415,251.684,191.425,251.638z M203.425,255.668c0.951,0.026,2.352-0.992,2.254-1.764
		c-0.12-0.944-0.803-1.371-1.76-1.388c-1.193-0.021-2.229,0.685-2.248,1.577C201.648,255.099,202.247,255.636,203.425,255.668z"/>
	<path fill-rule="evenodd" clip-rule="evenodd" fill="#006AB0" d="M191.744,248.587c1.476-2.088-0.686-3.718-0.454-5.688
		c0.075-0.639-0.609-0.446-1.107-0.304c-0.648,0.185-1.394,0.432-1.994,0.269c-0.531-0.144-1.239-0.768-1.305-1.256
		c-0.125-0.929,0.488-1.643,1.497-1.814c0.615-0.104,1.242-0.135,2.186-0.231c-0.546-1.296-0.943-2.441-1.529-3.479
		c-0.141-0.25-0.908-0.183-1.389-0.197c-0.701-0.02-1.478,0.214-2.083-0.02c-0.625-0.242-1.229-0.917-0.857-1.739
		c0.387-0.856,1.176-1.188,2.098-0.976c1.569,0.361,1.742,0.191,1.941-1.337c0.141-1.083,0.472-2.157,0.842-3.19
		c0.395-1.104,0.659-2.083-0.353-3.042c-0.746-0.707-0.758-1.659-0.008-2.333c0.734-0.66,1.638-0.396,2.203,0.329
		c0.801,1.026,1.481,0.636,2.159-0.035c0.751-0.743,1.545-1.417,1.415-2.72c-0.091-0.91,0.989-1.304,1.803-0.769
		c1.509,0.992,1.668,0.858,2.003-0.917c0.109-0.578,0.73-1.375,1.245-1.486c0.806-0.174,1.14,0.636,1.256,1.404
		c0.248,1.638,1.298,2.21,2.677,1.289c1.441-0.962,2.867-2.014,2.831-4.093c-0.016-0.931,1.076-1.971,1.693-1.715
		c0.519,0.215,1.243,0.61,1.334,1.041c0.197,0.928-0.374,1.818-1.271,2.044c-1.896,0.477-2.101,2.1-2.615,3.51
		c-0.09,0.249,0.189,0.742,0.435,0.985c1.965,1.948,3.947,3.88,5.972,5.766c0.243,0.226,0.857,0.319,1.151,0.174
		c0.851-0.42,1.64-0.972,2.418-1.522c0.17-0.121,0.148-0.482,0.288-0.682c0.514-0.736,0.939-1.608,1.625-2.131
		c0.695-0.529,1.436,0.065,1.752,0.725c0.324,0.675,0.663,1.59-0.232,2.1c-0.545,0.311-1.28,0.272-1.917,0.44
		c-0.486,0.128-1.013,0.247-1.414,0.525c-0.682,0.474-1.346,1.012-1.881,1.64c-0.259,0.304-0.37,0.919-0.258,1.31
		c0.174,0.606,0.647,0.843,1.404,0.754c0.621-0.073,1.511,0.098,1.871,0.515c0.281,0.325,0.014,1.221-0.167,1.815
		c-0.144,0.478-0.574,0.86-0.786,1.327c-0.42,0.923-0.881,1.832-0.297,2.908c0.204,0.376,0.031,0.939,0.113,1.402
		c0.094,0.529,0.163,1.118,0.447,1.545c0.773,1.162,0.788,2.293-0.091,2.905c-0.841,0.584-2.019,0.105-2.768-1.081
		c-0.331-0.524-0.283-1.581-1.414-1.112c-1.52,0.628-2.1,1.399-1.786,2.584c0.244,0.917,0.49,1.888,1.002,2.657
		c0.335,0.503,1.119,0.768,1.753,0.998c1.216,0.439,1.696,1.125,1.443,2.283c-0.215,0.985-1.22,1.542-2.235,1.239
		c-1.516-0.453-2.062-1.279-1.703-2.407c0.177-0.555,0.441-1.425,0.18-1.712c-0.777-0.857-1.701-1.888-2.737-2.132
		c-1.762-0.415-3.673,1.189-4.123,2.976c-0.034,0.135-0.06,0.273-0.173,0.799c-0.4-0.769-0.681-1.206-0.863-1.682
		c-0.312-0.812-0.815-1.065-1.718-1.135c-1.647-0.128-3.268-0.57-4.911-0.797c-0.365-0.051-1.04,0.153-1.125,0.396
		c-0.435,1.244-1.365,1.915-2.444,2.491c-0.252,0.135-0.438,0.395-0.653,0.597C191.994,248.594,191.869,248.591,191.744,248.587z"/>
	<path fill-rule="evenodd" clip-rule="evenodd" fill="#006AB0" d="M191.425,251.638c0.99,0.046,2.028,0.9,2.013,1.657
		c-0.017,0.842-0.966,1.882-1.705,1.87c-0.876-0.016-2.746-0.988-2.74-1.425C189.009,252.55,190.133,251.579,191.425,251.638z"/>
	<path fill-rule="evenodd" clip-rule="evenodd" fill="#006AB0" d="M203.425,255.668c-1.178-0.032-1.776-0.569-1.754-1.575
		c0.02-0.892,1.055-1.598,2.248-1.577c0.958,0.017,1.64,0.444,1.76,1.388C205.777,254.676,204.376,255.694,203.425,255.668z"/>
</g>
</svg>
